  0
SECTION
  2
HEADER
  9
$ACADVER
  1
AC1009
  9
$INSBASE
 10
0.0
 20
0.0
 30
0.0
  9
$EXTMIN
 10
0.0
 20
0.0
 30
0.0
  9
$EXTMAX
 10
100.0
 20
100.0
 30
0.0
  9
$LUNITS
 70
4
  0
ENDSEC
  0
SECTION
  2
TABLES
  0
TABLE
  2
LTYPE
 70
19
  0
LTYPE
  2
CONTINUOUS
 70
0
  3
Solid
 72
65
 73
0
 40
0.0
  0
LTYPE
  2
CENTER
 70
0
  3
Center ____ _ ____ _ ____ _ ____ _ ____ _ ____
 72
65
 73
4
 40
2.0
 49
1.25
 49
-0.25
 49
0.25
 49
-0.25
  0
LTYPE
  2
CENTERX2
 70
0
  3
Center (2x) ________  __  ________  __  ________
 72
65
 73
4
 40
3.5
 49
2.5
 49
-0.25
 49
0.5
 49
-0.25
  0
LTYPE
  2
CENTER2
 70
0
  3
Center (.5x) ____ _ ____ _ ____ _ ____ _ ____
 72
65
 73
4
 40
1.0
 49
0.625
 49
-0.125
 49
0.125
 49
-0.125
  0
LTYPE
  2
DASHED
 70
0
  3
Dashed __ __ __ __ __ __ __ __ __ __ __ __ __ _
 72
65
 73
2
 40
0.6
 49
0.5
 49
-0.1
  0
LTYPE
  2
DASHEDX2
 70
0
  3
Dashed (2x) ____  ____  ____  ____  ____  ____
 72
65
 73
2
 40
1.2
 49
1.0
 49
-0.2
  0
LTYPE
  2
DASHED2
 70
0
  3
Dashed (.5x) _ _ _ _ _ _ _ _ _ _ _ _ _ _
 72
65
 73
2
 40
0.3
 49
0.25
 49
-0.05
  0
LTYPE
  2
PHANTOM
 70
0
  3
Phantom ______  __  __  ______  __  __  ______
 72
65
 73
6
 40
2.5
 49
1.25
 49
-0.25
 49
0.25
 49
-0.25
 49
0.25
 49
-0.25
  0
LTYPE
  2
PHANTOMX2
 70
0
  3
Phantom (2x)____________    ____    ____    ____________
 72
65
 73
6
 40
4.25
 49
2.5
 49
-0.25
 49
0.5
 49
-0.25
 49
0.5
 49
-0.25
  0
LTYPE
  2
PHANTOM2
 70
0
  3
Phantom (.5x) ___ _ _ ___ _ _ ___ _ _ ___ _ _ ___
 72
65
 73
6
 40
1.25
 49
0.625
 49
-0.125
 49
0.125
 49
-0.125
 49
0.125
 49
-0.125
  0
LTYPE
  2
DASHDOT
 70
0
  3
Dash dot __ . __ . __ . __ . __ . __ . __ . __
 72
65
 73
4
 40
1.4
 49
1.0
 49
-0.2
 49
0.0
 49
-0.2
  0
LTYPE
  2
DASHDOTX2
 70
0
  3
Dash dot (2x) ____  .  ____  .  ____  .  ____
 72
65
 73
4
 40
2.4
 49
2.0
 49
-0.2
 49
0.0
 49
-0.2
  0
LTYPE
  2
DASHDOT2
 70
0
  3
Dash dot (.5x) _ . _ . _ . _ . _ . _ . _ . _
 72
65
 73
4
 40
0.7
 49
0.5
 49
-0.1
 49
0.0
 49
-0.1
  0
LTYPE
  2
DOT
 70
0
  3
Dot .  .  .  .  .  .  .  .  .  .  .  .  .  .  .  .
 72
65
 73
2
 40
0.2
 49
0.0
 49
-0.2
  0
LTYPE
  2
DOTX2
 70
0
  3
Dot (2x) .    .    .    .    .    .    .    . 
 72
65
 73
2
 40
0.4
 49
0.0
 49
-0.4
  0
LTYPE
  2
DOT2
 70
0
  3
Dot (.5) . . . . . . . . . . . . . . . . . . . 
 72
65
 73
2
 40
0.1
 49
0.0
 49
-0.1
  0
LTYPE
  2
DIVIDE
 70
0
  3
Divide __ . . __ . . __ . . __ . . __ . . __
 72
65
 73
6
 40
1.6
 49
1.0
 49
-0.2
 49
0.0
 49
-0.2
 49
0.0
 49
-0.2
  0
LTYPE
  2
DIVIDEX2
 70
0
  3
Divide (2x) ____  . .  ____  . .  ____  . .  ____
 72
65
 73
6
 40
2.6
 49
2.0
 49
-0.2
 49
0.0
 49
-0.2
 49
0.0
 49
-0.2
  0
LTYPE
  2
DIVIDE2
 70
0
  3
Divide(.5x) _ . _ . _ . _ . _ . _ . _ . _
 72
65
 73
6
 40
0.8
 49
0.5
 49
-0.1
 49
0.0
 49
-0.1
 49
0.0
 49
-0.1
  0
ENDTAB
  0
TABLE
  2
LAYER
 70
6
  0
LAYER
  2
DIMENSIONS
 70
0
 62
1
  6
CONTINUOUS
  0
LAYER
  2
TABLEBACKGROUND
 70
0
 62
1
  6
CONTINUOUS
  0
LAYER
  2
TABLECONTENT
 70
0
 62
1
  6
CONTINUOUS
  0
LAYER
  2
TABLEGRID
 70
0
 62
1
  6
CONTINUOUS
  0
LAYER
  2
VIEWPORTS
 70
0
 62
7
  6
CONTINUOUS
  0
LAYER
  2
LINES
 70
0
 62
1
  6
CONTINUOUS
  0
ENDTAB
  0
TABLE
  2
STYLE
 70
12
  0
STYLE
  2
STANDARD
 70
0
 40
0.0
 41
1.0
 42
1.0
 50
0.0
 71
0
  3
arial.ttf
  4

  0
STYLE
  2
ARIAL
 70
0
 40
0.0
 41
1.0
 42
1.0
 50
0.0
 71
0
  3
arial.ttf
  4

  0
STYLE
  2
ARIAL_BOLD
 70
0
 40
0.0
 41
1.0
 42
1.0
 50
0.0
 71
0
  3
arialbd.ttf
  4

  0
STYLE
  2
ARIAL_ITALIC
 70
0
 40
0.0
 41
1.0
 42
1.0
 50
0.0
 71
0
  3
ariali.ttf
  4

  0
STYLE
  2
ARIAL_BOLD_ITALIC
 70
0
 40
0.0
 41
1.0
 42
1.0
 50
0.0
 71
0
  3
arialbi.ttf
  4

  0
STYLE
  2
ARIAL_BLACK
 70
0
 40
0.0
 41
1.0
 42
1.0
 50
0.0
 71
0
  3
ariblk.ttf
  4

  0
STYLE
  2
ISOCPEUR
 70
0
 40
0.0
 41
1.0
 42
1.0
 50
0.0
 71
0
  3
isocpeur.ttf
  4

  0
STYLE
  2
ISOCPEUR_ITALIC
 70
0
 40
0.0
 41
1.0
 42
1.0
 50
0.0
 71
0
  3
isocpeui.ttf
  4

  0
STYLE
  2
TIMES
 70
0
 40
0.0
 41
1.0
 42
1.0
 50
0.0
 71
0
  3
times.ttf
  4

  0
STYLE
  2
TIMES_BOLD
 70
0
 40
0.0
 41
1.0
 42
1.0
 50
0.0
 71
0
  3
timesbd.ttf
  4

  0
STYLE
  2
TIMES_ITALIC
 70
0
 40
0.0
 41
1.0
 42
1.0
 50
0.0
 71
0
  3
timesi.ttf
  4

  0
STYLE
  2
TIMES_BOLD_ITALIC
 70
0
 40
0.0
 41
1.0
 42
1.0
 50
0.0
 71
0
  3
timesbi.ttf
  4

  0
ENDTAB
  0
TABLE
  2
VIEW
 70
0
  0
ENDTAB
  0
TABLE
  2
APPID
 70
1
  0
APPID
  2
DXFWRITE
 70
0
  0
ENDTAB
  0
TABLE
  2
VPORT
 70
0
  0
ENDTAB
  0
TABLE
  2
UCS
 70
0
  0
ENDTAB
  0
ENDSEC
  0
SECTION
  2
BLOCKS
  0
ENDSEC
  0
SECTION
  2
ENTITIES
  0
VIEWPORT
  8
VIEWPORTS
 67
1
 10
0.0
 20
0.0
 30
0.0
 40
1.0
 41
1.0
 68
1
 69
1
1001
ACAD
1000
MVIEW
1002
{
1070
16
1010
0.0
1020
0.0
1030
0.0
1010
0.0
1020
0.0
1030
0.0
1040
0.0
1040
1.0
1040
0.0
1040
0.0
1040
50.0
1040
0.0
1040
0.0
1070
0
1070
100
1070
1
1070
3
1070
0
1070
0
1070
0
1070
0
1040
0.0
1040
0.0
1040
0.0
1040
0.1
1040
0.1
1040
0.1
1040
0.1
1070
0
1002
{
1002
}
1002
}
  0
LINE
 62
5
  8
LINES
 10
133.33333333333331
 20
200.0
 30
0.0
 11
86.58333333333333
 21
200.0
 31
0.0
  0
LINE
 62
5
  8
LINES
 10
86.58333333333333
 20
200.0
 30
0.0
 11
86.58333333333333
 21
214.525
 31
0.0
  0
LINE
 62
5
  8
LINES
 10
86.58333333333333
 20
214.525
 30
0.0
 11
62.375
 21
214.525
 31
0.0
  0
LINE
 62
5
  8
LINES
 10
62.375
 20
214.525
 30
0.0
 11
62.375
 21
224.20833333333331
 31
0.0
  0
LINE
 62
5
  8
LINES
 10
62.375
 20
224.20833333333331
 30
0.0
 11
101.10833333333332
 21
224.20833333333331
 31
0.0
  0
LINE
 62
5
  8
LINES
 10
101.10833333333332
 20
224.20833333333331
 30
0.0
 11
101.10833333333332
 21
209.6833333333333
 31
0.0
  0
LINE
 62
5
  8
LINES
 10
101.10833333333332
 20
209.6833333333333
 30
0.0
 11
104.28333333333332
 21
209.6833333333333
 31
0.0
  0
LINE
 62
5
  8
LINES
 10
104.28333333333332
 20
209.6833333333333
 30
0.0
 11
104.28333333333332
 21
224.20833333333331
 31
0.0
  0
LINE
 62
5
  8
LINES
 10
104.28333333333332
 20
224.20833333333331
 30
0.0
 11
133.33333333333331
 21
224.20833333333331
 31
0.0
  0
LINE
 62
5
  8
LINES
 10
133.33333333333331
 20
224.20833333333331
 30
0.0
 11
136.66666666666666
 21
224.20833333333331
 31
0.0
  0
LINE
 62
5
  8
LINES
 10
136.66666666666666
 20
224.20833333333331
 30
0.0
 11
165.71666666666664
 21
224.20833333333331
 31
0.0
  0
LINE
 62
5
  8
LINES
 10
165.71666666666664
 20
224.20833333333331
 30
0.0
 11
165.71666666666664
 21
209.6833333333333
 31
0.0
  0
LINE
 62
5
  8
LINES
 10
165.71666666666664
 20
209.6833333333333
 30
0.0
 11
168.89166666666665
 21
209.6833333333333
 31
0.0
  0
LINE
 62
5
  8
LINES
 10
168.89166666666665
 20
209.6833333333333
 30
0.0
 11
168.89166666666665
 21
224.20833333333331
 31
0.0
  0
LINE
 62
5
  8
LINES
 10
168.89166666666665
 20
224.20833333333331
 30
0.0
 11
207.625
 21
224.20833333333331
 31
0.0
  0
LINE
 62
5
  8
LINES
 10
207.625
 20
224.20833333333331
 30
0.0
 11
207.625
 21
214.525
 31
0.0
  0
LINE
 62
5
  8
LINES
 10
207.625
 20
214.525
 30
0.0
 11
183.41666666666666
 21
214.525
 31
0.0
  0
LINE
 62
5
  8
LINES
 10
183.41666666666666
 20
214.525
 30
0.0
 11
183.41666666666666
 21
200.0
 31
0.0
  0
LINE
 62
5
  8
LINES
 10
183.41666666666666
 20
200.0
 30
0.0
 11
136.66666666666666
 21
200.0
 31
0.0
  0
LINE
 62
5
  8
LINES
 10
133.33333333333331
 20
200.0
 30
0.0
 11
133.33333333333331
 21
180.0
 31
0.0
  0
LINE
 62
5
  8
LINES
 10
136.66666666666666
 20
200.0
 30
0.0
 11
136.66666666666666
 21
180.0
 31
0.0
  0
LINE
 62
5
  8
LINES
 10
135.0
 20
176.5687573591665
 30
0.0
 11
145.40768857939094
 21
161.70503765971665
 31
0.0
  0
LINE
 62
5
  8
LINES
 10
136.66666666666666
 20
180.0
 30
0.0
 11
148.13819539368757
 21
163.61695911422015
 31
0.0
  0
LINE
 62
5
  8
LINES
 10
148.74102191272428
 20
159.8502889632781
 30
0.0
 11
165.79198066498685
 21
153.64424751175375
 31
0.0
  0
LINE
 62
5
  8
LINES
 10
148.13819539368757
 20
163.61695911422015
 30
0.0
 11
166.93204780940573
 21
156.77655624770676
 31
0.0
  0
ARC
 62
5
  8
LINES
 10
174.0345723571434
 20
152.41781910339205
 30
0.0
 40
8.333333333333332
 50
-548.4630409671845
 51
-211.5369590328155
  0
ARC
 62
1
  8
LINES
 10
174.19278607707886
 20
152.360234018683
 30
0.0
 40
5.0
 50
-559.0
 51
-200.0
  0
ARC
 62
1
  8
LINES
 10
174.19278607707886
 20
152.360234018683
 30
0.0
 40
5.0
 50
-201.0
 51
-200.0
  0
LINE
 62
5
  8
LINES
 10
145.40768857939094
 20
161.70503765971665
 30
0.0
 11
145.40768857939094
 21
141.70503765971665
 31
0.0
  0
LINE
 62
5
  8
LINES
 10
148.74102191272428
 20
159.8502889632781
 30
0.0
 11
148.74102191272428
 21
141.70503765971665
 31
0.0
  0
ARC
 62
5
  8
LINES
 10
147.07435524605762
 20
133.5400718504394
 30
0.0
 40
8.333333333333332
 50
-618.4630409671845
 51
-281.5369590328155
  0
ARC
 62
1
  8
LINES
 10
147.07435524605762
 20
133.37170432638334
 30
0.0
 40
5.0
 50
-629.0
 51
-270.0
  0
ARC
 62
1
  8
LINES
 10
147.07435524605762
 20
133.37170432638334
 30
0.0
 40
5.0
 50
-271.0
 51
-270.0
  0
LINE
 62
5
  8
LINES
 10
133.33333333333331
 20
180.0
 30
0.0
 11
121.8618046063124
 21
163.61695911422015
 31
0.0
  0
LINE
 62
5
  8
LINES
 10
135.0
 20
176.5687573591665
 30
0.0
 11
124.59231142060904
 21
161.70503765971665
 31
0.0
  0
LINE
 62
5
  8
LINES
 10
121.25897808727571
 20
159.8502889632781
 30
0.0
 11
121.25897808727571
 21
141.70503765971665
 31
0.0
  0
LINE
 62
5
  8
LINES
 10
124.59231142060904
 20
161.70503765971665
 30
0.0
 11
124.59231142060904
 21
141.70503765971665
 31
0.0
  0
ARC
 62
5
  8
LINES
 10
122.92564475394238
 20
133.5400718504394
 30
0.0
 40
8.333333333333332
 50
-618.4630409671845
 51
-281.5369590328155
  0
ARC
 62
1
  8
LINES
 10
122.92564475394238
 20
133.37170432638334
 30
0.0
 40
5.0
 50
-629.0
 51
-270.0
  0
ARC
 62
1
  8
LINES
 10
122.92564475394238
 20
133.37170432638334
 30
0.0
 40
5.0
 50
-271.0
 51
-270.0
  0
LINE
 62
5
  8
LINES
 10
121.8618046063124
 20
163.61695911422015
 30
0.0
 11
103.06795219059424
 21
156.7765562477068
 31
0.0
  0
LINE
 62
5
  8
LINES
 10
121.25897808727571
 20
159.8502889632781
 30
0.0
 11
104.20801933501312
 21
153.64424751175375
 31
0.0
  0
LINE
 62
5
  8
LINES
 10
100.41367237308654
 20
154.03684777992726
 30
0.0
 11
90.00598379369559
 21
139.1731280804774
 31
0.0
  0
LINE
 62
5
  8
LINES
 10
104.20801933501315
 20
153.64424751175375
 30
0.0
 11
92.73649060799222
 21
137.26120662597393
 31
0.0
  0
LINE
 62
5
  8
LINES
 10
90.41527647359216
 20
139.582420760374
 30
0.0
 11
87.54739429183692
 21
143.67818098181897
 31
0.0
  0
LINE
 62
5
  8
LINES
 10
87.54739429183692
 20
143.67818098181897
 30
0.0
 11
83.53529413748994
 21
138.35394424817034
 31
0.0
  0
LINE
 62
5
  8
LINES
 10
83.53529413748994
 20
138.35394424817034
 30
0.0
 11
77.15992909773638
 21
136.40479955001877
 31
0.0
  0
LINE
 62
5
  8
LINES
 10
77.15992909773638
 20
136.40479955001877
 30
0.0
 11
80.98377200674335
 21
130.94378592142547
 31
0.0
  0
LINE
 62
5
  8
LINES
 10
80.98377200674335
 20
130.94378592142547
 30
0.0
 11
80.8674226304948
 21
124.27813462038287
 31
0.0
  0
LINE
 62
5
  8
LINES
 10
80.8674226304948
 20
124.27813462038287
 30
0.0
 11
87.24278767024836
 21
126.22727931853446
 31
0.0
  0
LINE
 62
5
  8
LINES
 10
87.24278767024836
 20
126.22727931853446
 30
0.0
 11
93.54624484091048
 21
124.05682495548675
 31
0.0
  0
LINE
 62
5
  8
LINES
 10
93.54624484091048
 20
124.05682495548675
 30
0.0
 11
93.66259421715904
 21
130.72247625652935
 31
0.0
  0
LINE
 62
5
  8
LINES
 10
93.66259421715904
 20
130.72247625652935
 30
0.0
 11
97.67469437150602
 21
136.04671299017798
 31
0.0
  0
LINE
 62
5
  8
LINES
 10
97.67469437150602
 20
136.04671299017798
 30
0.0
 11
92.94710149350944
 21
137.67455376246374
 31
0.0
  0
LINE
 62
5
  8
LINES
 10
103.06795219059424
 20
156.7765562477068
 30
0.0
 11
83.74943566481288
 21
161.9529371497572
 31
0.0
  0
LINE
 62
5
  8
LINES
 10
100.41367237308654
 20
154.03684777992726
 30
0.0
 11
82.88670551447116
 21
158.73318439546028
 31
0.0
  0
LINE
 62
5
  8
LINES
 10
80.00374470659666
 20
161.23113171642433
 30
0.0
 11
62.95278595433408
 21
155.02509026489997
 31
0.0
  0
LINE
 62
5
  8
LINES
 10
82.88670551447115
 20
158.73318439546028
 30
0.0
 11
64.09285309875298
 21
151.89278152894693
 31
0.0
  0
LINE
 62
5
  8
LINES
 10
60.298506136826376
 20
152.28538179712044
 30
0.0
 11
49.890817557435426
 21
137.42166209767058
 31
0.0
  0
LINE
 62
5
  8
LINES
 10
64.09285309875298
 20
151.89278152894693
 30
0.0
 11
52.62132437173206
 21
135.5097406431671
 31
0.0
  0
LINE
 62
5
  8
LINES
 10
49.890817557435426
 20
137.4216620976706
 30
0.0
 11
44.42980392884215
 21
141.24550500667755
 31
0.0
  0
LINE
 62
5
  8
LINES
 10
44.42980392884215
 20
141.24550500667755
 30
0.0
 11
34.87019665632471
 21
127.59297093519436
 31
0.0
  0
LINE
 62
5
  8
LINES
 10
34.87019665632471
 20
127.59297093519436
 30
0.0
 11
48.522730727807904
 21
118.03336366267692
 31
0.0
  0
LINE
 62
5
  8
LINES
 10
48.522730727807904
 20
118.03336366267692
 30
0.0
 11
58.08233800032534
 21
131.6858977341601
 31
0.0
  0
LINE
 62
5
  8
LINES
 10
58.08233800032534
 20
131.6858977341601
 30
0.0
 11
52.62132437173206
 21
135.5097406431671
 31
0.0
  0
LINE
 62
5
  8
LINES
 10
62.95278595433408
 20
155.02509026489997
 30
0.0
 11
43.63426942855271
 21
160.20147116695037
 31
0.0
  0
LINE
 62
5
  8
LINES
 10
60.298506136826376
 20
152.28538179712044
 30
0.0
 11
42.77153927821099
 21
156.98171841265346
 31
0.0
  0
LINE
 62
5
  8
LINES
 10
44.15886508063359
 20
159.95684819695023
 30
0.0
 11
47.026747262388824
 21
164.05260841839518
 31
0.0
  0
LINE
 62
5
  8
LINES
 10
47.026747262388824
 20
164.05260841839518
 30
0.0
 11
40.65138222263525
 21
166.00175311654675
 31
0.0
  0
LINE
 62
5
  8
LINES
 10
40.65138222263525
 20
166.00175311654675
 30
0.0
 11
36.63928206828825
 21
171.32598985019538
 31
0.0
  0
LINE
 62
5
  8
LINES
 10
36.63928206828825
 20
171.32598985019538
 30
0.0
 11
32.81543915928128
 21
165.8649762216021
 31
0.0
  0
LINE
 62
5
  8
LINES
 10
32.81543915928128
 20
165.8649762216021
 30
0.0
 11
26.51198198861917
 21
163.6945218585544
 31
0.0
  0
LINE
 62
5
  8
LINES
 10
26.51198198861917
 20
163.6945218585544
 30
0.0
 11
30.524082142966154
 21
158.37028512490576
 31
0.0
  0
LINE
 62
5
  8
LINES
 10
30.524082142966154
 20
158.37028512490576
 30
0.0
 11
30.640431519214708
 21
151.70463382386316
 31
0.0
  0
LINE
 62
5
  8
LINES
 10
30.640431519214708
 20
151.70463382386316
 30
0.0
 11
36.94388868987682
 21
153.8750881869109
 31
0.0
  0
LINE
 62
5
  8
LINES
 10
36.94388868987682
 20
153.8750881869109
 30
0.0
 11
43.31925372963039
 21
151.9259434887593
 31
0.0
  0
LINE
 62
5
  8
LINES
 10
43.31925372963039
 20
151.9259434887593
 30
0.0
 11
43.231991697443966
 21
156.92518196454125
 31
0.0
  0
LINE
 62
5
  8
LINES
 10
83.74943566481288
 20
161.9529371497572
 30
0.0
 11
70.8936834710821
 21
177.27382601213677
 31
0.0
  0
LINE
 62
5
  8
LINES
 10
80.00374470659666
 20
161.23113171642433
 30
0.0
 11
68.34020199401884
 21
175.13120064651497
 31
0.0
  0
LINE
 62
5
  8
LINES
 10
71.183097100527
 20
176.7725469015353
 30
0.0
 11
75.88156020445653
 21
178.4826476181636
 31
0.0
  0
LINE
 62
5
  8
LINES
 10
75.88156020445653
 20
178.4826476181636
 30
0.0
 11
71.77715036895215
 21
183.73605264220842
 31
0.0
  0
LINE
 62
5
  8
LINES
 10
71.77715036895215
 20
183.73605264220842
 30
0.0
 11
71.54448705760214
 21
190.39865815566907
 31
0.0
  0
LINE
 62
5
  8
LINES
 10
71.54448705760214
 20
190.39865815566907
 30
0.0
 11
65.27986958569609
 21
188.11852386683125
 31
0.0
  0
LINE
 62
5
  8
LINES
 10
65.27986958569609
 20
188.11852386683125
 30
0.0
 11
58.87145827944063
 21
189.95610623894459
 31
0.0
  0
LINE
 62
5
  8
LINES
 10
58.87145827944063
 20
189.95610623894459
 30
0.0
 11
59.10412159079064
 21
183.29350072548394
 31
0.0
  0
LINE
 62
5
  8
LINES
 10
59.10412159079064
 20
183.29350072548394
 30
0.0
 11
55.37616890098566
 21
177.766583575117
 31
0.0
  0
LINE
 62
5
  8
LINES
 10
55.37616890098566
 20
177.766583575117
 30
0.0
 11
61.78458020724112
 21
175.92900120300368
 31
0.0
  0
LINE
 62
5
  8
LINES
 10
61.78458020724112
 20
175.92900120300368
 30
0.0
 11
65.8889900427455
 21
170.67559617895887
 31
0.0
  0
LINE
 62
5
  8
LINES
 10
65.8889900427455
 20
170.67559617895887
 30
0.0
 11
68.68495456009924
 21
174.8207840417341
 31
0.0
  0
ENDSEC
  0
EOF
